<?xml version="1.0" ?><!DOCTYPE svg  PUBLIC '-//W3C//DTD SVG 1.1//EN'  'http://www.w3.org/Graphics/SVG/1.1/DTD/svg11.dtd'><svg enable-background="new 0 0 512 512" height="512px" id="Layer_1" version="1.1" viewBox="0 0 512 512" width="512px" xml:space="preserve" xmlns="http://www.w3.org/2000/svg" xmlns:xlink="http://www.w3.org/1999/xlink"><g><g><g><g><g><g><g><circle cx="256" cy="256" fill="#F2BB64" r="256"/></g></g></g></g></g><g><g><g><g><g><g><path d="M307,148c-13.201,0-24,10.8-24,24v168c0,13.199,10.799,24,24,24h35.998V148H307z" fill="#515764"/></g></g></g></g><g><g><g><g><path d="M379,148h-36.002v216H379c13.199,0,24-10.801,24-24V172C403,158.8,392.199,148,379,148z" fill="#3B4250"/></g></g></g></g></g><g><g><g><g><rect fill="#242C3C" height="72" width="24" x="259.188" y="220"/></g></g></g></g><g><g><g><g><rect fill="#FFFFFF" height="2" width="119.813" x="283.188" y="315"/></g></g></g></g><g><g><g><g><g><path d="M121,196c-6.602,0-12,5.4-12,12v96c0,6.6,5.398,12,12,12h72V196H121z" fill="#515764"/></g></g></g></g><g><g><g><g><path d="M265,196h-72v120h72c6.598,0,12-5.4,12-12v-96C277,201.4,271.598,196,265,196z" fill="#3B4250"/></g></g></g></g></g><g><g><g><g><g><path d="M342.998,161.999c25.364,0,46,20.636,46,46.001s-20.636,46.001-46,46.001s-46-20.636-46-46.001           S317.634,161.999,342.998,161.999L342.998,161.999z M342.998,252c11.752,0,22.802-4.577,31.113-12.888           c8.311-8.309,12.887-19.358,12.887-31.112s-4.576-22.804-12.887-31.113C365.799,168.576,354.75,164,342.998,164           c-11.75,0-22.799,4.576-31.111,12.887C303.576,185.196,299,196.246,299,208s4.576,22.804,12.887,31.112           C320.198,247.423,331.247,252,342.998,252L342.998,252z M342.998,159.999c-26.51,0-48,21.49-48,48.001           s21.49,48.001,48,48.001s48-21.49,48-48.001S369.508,159.999,342.998,159.999L342.998,159.999z M342.998,250           c-11.217,0-21.764-4.369-29.697-12.302S301,219.219,301,208s4.367-21.766,12.301-29.699           c7.934-7.932,18.48-12.301,29.697-12.301c11.219,0,21.766,4.369,29.699,12.301c7.934,7.934,12.301,18.48,12.301,29.699           s-4.367,21.766-12.301,29.698S354.217,250,342.998,250L342.998,250z" fill="#FFFFFF"/></g></g></g></g><g><g><g><g><path d="M372.697,178.301c-7.934-7.932-18.48-12.301-29.699-12.301c-11.217,0-21.764,4.369-29.697,12.301           C305.367,186.234,301,196.781,301,208s4.367,21.766,12.301,29.698S331.781,250,342.998,250           c11.219,0,21.766-4.369,29.699-12.302s12.301-18.479,12.301-29.698S380.631,186.234,372.697,178.301z M342.998,244           C323.117,244,307,227.883,307,208s16.117-36,35.998-36c19.883,0,36,16.117,36,36S362.881,244,342.998,244z" fill="#242C3C"/></g></g></g></g></g><g><g><g><g><circle cx="378.998" cy="268" fill="#FFFFFF" r="6"/></g></g></g></g><g><g><g><g><g><path d="M342.998,172v72c19.883,0,36-16.117,36-36S362.881,172,342.998,172z" fill="#515764"/></g></g></g></g><g><g><g><g><path d="M307,208c0,19.883,16.117,36,35.998,36v-72C323.117,172,307,188.117,307,208z" fill="#3B4250"/></g></g></g></g></g></g></g></g></svg>