<?xml version="1.0" ?><!DOCTYPE svg  PUBLIC '-//W3C//DTD SVG 1.1//EN'  'http://www.w3.org/Graphics/SVG/1.1/DTD/svg11.dtd'><svg enable-background="new 0 0 512 512" height="512px" id="Layer_1" version="1.1" viewBox="0 0 512 512" width="512px" xml:space="preserve" xmlns="http://www.w3.org/2000/svg" xmlns:xlink="http://www.w3.org/1999/xlink"><g><g><g><g><g><g><circle cx="256" cy="256" fill="#F2BB64" r="256"/></g></g></g></g><g><g><g><g><g><polygon fill="none" points="142.368,331 226,331 226,122.125         "/></g></g></g></g><g><g><g><g><polygon fill="#FFFFFF" points="238,307 376,307 343.999,259 238,259         "/></g></g></g></g><g><g><g><g><polygon fill="#FFFFFF" points="295.999,187 238,100.001 238,187         "/></g></g></g></g><g><g><g><g><path d="M238,259h105.999l-48-72H238V259z M255.89,256h0.221H255.89z" fill="#86CCCC"/></g></g></g></g><g><g><g><g><path d="M226,122.125V331h12v-23.999v-48v-72v-87v-9c0-0.013-0.002-0.024-0.002-0.038          c-0.001-0.143-0.01-0.284-0.021-0.426c-0.005-0.061-0.006-0.121-0.012-0.182c-0.014-0.117-0.034-0.234-0.055-0.352          c-0.014-0.081-0.023-0.164-0.041-0.245c-0.016-0.077-0.039-0.153-0.059-0.23c-0.029-0.115-0.057-0.231-0.092-0.345          c-0.01-0.029-0.022-0.058-0.033-0.088c-0.113-0.338-0.252-0.665-0.421-0.974c-0.011-0.019-0.022-0.035-0.033-0.054          c-0.082-0.146-0.169-0.292-0.263-0.432c-0.081-0.119-0.171-0.233-0.261-0.348c-0.027-0.035-0.052-0.072-0.08-0.107          c-0.116-0.14-0.239-0.274-0.368-0.404c-0.006-0.006-0.012-0.014-0.018-0.02c-0.104-0.104-0.216-0.201-0.328-0.298          c-0.035-0.031-0.068-0.064-0.105-0.095c-0.08-0.066-0.167-0.126-0.252-0.188c-0.075-0.056-0.148-0.114-0.227-0.166          c-0.057-0.038-0.117-0.07-0.175-0.106c-0.114-0.07-0.229-0.142-0.349-0.205c-0.037-0.02-0.077-0.036-0.115-0.056          c-0.144-0.072-0.289-0.141-0.439-0.202c-0.008-0.003-0.015-0.007-0.022-0.01c-0.031-0.013-0.063-0.021-0.094-0.032          c-0.146-0.056-0.292-0.108-0.443-0.152c-0.068-0.021-0.138-0.036-0.206-0.054c-0.118-0.029-0.236-0.06-0.356-0.083          c-0.104-0.021-0.209-0.033-0.313-0.048c-0.087-0.012-0.173-0.025-0.261-0.033c-0.136-0.014-0.272-0.018-0.407-0.021          c-0.051-0.001-0.099-0.007-0.148-0.007c-0.013,0-0.024,0.001-0.037,0.002c-0.143,0.001-0.285,0.011-0.426,0.021          c-0.061,0.005-0.122,0.006-0.182,0.013c-0.118,0.012-0.234,0.033-0.352,0.053c-0.082,0.014-0.165,0.024-0.246,0.041          c-0.077,0.017-0.153,0.04-0.23,0.06c-0.115,0.029-0.231,0.056-0.344,0.092c-0.03,0.01-0.059,0.022-0.089,0.032          c-0.338,0.113-0.665,0.253-0.974,0.422c-0.018,0.01-0.035,0.022-0.054,0.033c-0.147,0.082-0.292,0.168-0.431,0.263          c-0.12,0.081-0.234,0.171-0.349,0.261c-0.035,0.027-0.072,0.052-0.106,0.08c-0.141,0.115-0.275,0.238-0.404,0.367          c-0.007,0.007-0.014,0.012-0.021,0.019c-0.104,0.104-0.201,0.216-0.298,0.328c-0.031,0.035-0.064,0.068-0.095,0.104          c-0.065,0.081-0.126,0.168-0.188,0.252c-0.055,0.076-0.113,0.149-0.166,0.228c-0.037,0.056-0.07,0.116-0.105,0.175          c-0.071,0.113-0.143,0.229-0.205,0.348c-0.021,0.038-0.037,0.078-0.057,0.116c-0.072,0.144-0.141,0.289-0.201,0.438          c-0.004,0.008-0.008,0.016-0.011,0.023l-96.095,240c-0.293,0.73-0.428,1.729-0.428,2.229h12.46L226,122.125z" fill="#242C3C"/></g></g></g></g><g><g><g><g><polygon fill="#FFFFFF" points="99.977,355 111.953,379 375.906,379 399.953,355         "/></g></g></g></g><g><g><g><g><polygon fill="#FFFFFF" points="424,331 238,331 226,331 142.368,331 129.908,331 88,331 93.988,343 411.977,343                   "/></g></g></g></g><g><g><g><g><polygon fill="#86CCCC" points="411.977,343 93.988,343 99.977,355 399.953,355         "/></g></g></g></g><g><g><g><g><path d="M256,256L256,256          L256,256z" fill="none" stroke="#6DBEC4" stroke-linecap="round" stroke-linejoin="round" stroke-width="0"/></g></g></g></g></g></g></g></svg>